<?xml version="1.0" encoding="UTF-8"?>
<svg width="24" height="24" viewBox="0 0 24 24" fill="none" xmlns="http://www.w3.org/2000/svg">
    <path d="M8 2C6.9 2 6 2.9 6 4V16C6 17.1 6.9 18 8 18H16C17.1 18 18 17.1 18 16V4C18 2.9 17.1 2 16 2H8Z" fill="currentColor"/>
    <path d="M8 19C6.9 19 6 19.9 6 21V22H18V21C18 19.9 17.1 19 16 19H8Z" fill="currentColor"/>
    <path d="M12 5C13.1046 5 14 6.11929 14 7.5C14 8.88071 13.1046 10 12 10C10.8954 10 10 8.88071 10 7.5C10 6.11929 10.8954 5 12 5Z" fill="red"/>
</svg>
