<?xml version="1.0" encoding="UTF-8"?>
<svg width="24" height="24" viewBox="0 0 24 24" fill="none" xmlns="http://www.w3.org/2000/svg">
    <path d="M12 2C10.9 2 10 2.9 10 4V16C10 17.1 10.9 18 12 18C13.1 18 14 17.1 14 16V4C14 2.9 13.1 2 12 2Z" fill="currentColor"/>
    <path d="M12 19C10.9 19 10 19.9 10 21V22H14V21C14 19.9 13.1 19 12 19Z" fill="currentColor"/>
    <path d="M12.5 7.5C12.5 8.88071 11.8807 10 11 10C10.1193 10 9.5 8.88071 9.5 7.5C9.5 6.11929 10.1193 5 11 5C11.8807 5 12.5 6.11929 12.5 7.5Z" fill="orange"/>
</svg>
